<svg width="48" height="47" viewBox="0 0 48 47" fill="none" xmlns="http://www.w3.org/2000/svg">
<path d="M13.9961 0C6.27809 0 0 6.15299 0 13.7122V33.2955C0 40.8527 6.28391 47 14.0039 47H34.0039C41.7219 47 48 40.847 48 33.2878V13.7045C48 6.1473 41.7161 0 33.9961 0H13.9961ZM38 7.83333C39.104 7.83333 40 8.71067 40 9.79167C40 10.8727 39.104 11.75 38 11.75C36.896 11.75 36 10.8727 36 9.79167C36 8.71067 36.896 7.83333 38 7.83333ZM24 11.75C30.618 11.75 36 17.0199 36 23.5C36 29.9801 30.618 35.25 24 35.25C17.382 35.25 12 29.9801 12 23.5C12 17.0199 17.382 11.75 24 11.75ZM24 15.6667C21.8783 15.6667 19.8434 16.492 18.3431 17.961C16.8429 19.43 16 21.4225 16 23.5C16 25.5775 16.8429 27.57 18.3431 29.039C19.8434 30.508 21.8783 31.3333 24 31.3333C26.1217 31.3333 28.1566 30.508 29.6569 29.039C31.1571 27.57 32 25.5775 32 23.5C32 21.4225 31.1571 19.43 29.6569 17.961C28.1566 16.492 26.1217 15.6667 24 15.6667Z" fill="url(#paint0_linear_22_20)"/>
<defs>
<linearGradient id="paint0_linear_22_20" x1="24" y1="0" x2="24" y2="47" gradientUnits="userSpaceOnUse">
<stop stop-color="#F73E6F"/>
<stop offset="0.855769" stop-color="#892491"/>
</linearGradient>
</defs>
</svg>
