<svg width="52" height="47" viewBox="0 0 52 47" fill="none" xmlns="http://www.w3.org/2000/svg">
<path d="M47.2727 0H4.72727C2.11545 0 0 1.91205 0 4.27273V42.7273C0 45.088 2.11545 47 4.72727 47H47.2727C49.8845 47 52 45.088 52 42.7273V4.27273C52 1.91205 49.8845 0 47.2727 0ZM16.4367 38.4545H9.464V18.1762H16.4367V38.4545ZM12.8795 15.2771C10.6316 15.2771 8.814 13.63 8.814 11.6026C8.814 9.57518 10.634 7.93018 12.8795 7.93018C15.1202 7.93018 16.9425 9.57732 16.9425 11.6026C16.9425 13.63 15.1202 15.2771 12.8795 15.2771ZM42.5549 38.4545H35.5869V28.5931C35.5869 26.241 35.5396 23.2159 31.9635 23.2159C28.3353 23.2159 27.7775 25.7774 27.7775 28.4222V38.4545H20.8095V18.1762H27.4985V20.947H27.5931C28.5244 19.3533 30.7982 17.672 34.19 17.672C41.2502 17.672 42.5549 21.8721 42.5549 27.3326V38.4545Z" fill="#2457C5"/>
</svg>
