<svg width="40" height="52" viewBox="0 0 40 52" fill="none" xmlns="http://www.w3.org/2000/svg">
<path d="M4.00003 12.1333C3.82335 12.1301 3.64793 12.1725 3.48397 12.2582C3.32001 12.3438 3.17079 12.471 3.04496 12.6323C2.91913 12.7935 2.81922 12.9857 2.75102 13.1976C2.68282 13.4095 2.64771 13.637 2.64771 13.8667C2.64771 14.0964 2.68282 14.3238 2.75102 14.5357C2.81922 14.7476 2.91913 14.9398 3.04496 15.1011C3.17079 15.2624 3.32001 15.3895 3.48397 15.4752C3.64793 15.5608 3.82335 15.6033 4.00003 15.6H36C36.1767 15.6033 36.3521 15.5608 36.5161 15.4752C36.68 15.3895 36.8293 15.2624 36.9551 15.1011C37.0809 14.9398 37.1808 14.7476 37.249 14.5357C37.3172 14.3238 37.3523 14.0964 37.3523 13.8667C37.3523 13.637 37.3172 13.4095 37.249 13.1976C37.1808 12.9857 37.0809 12.7935 36.9551 12.6323C36.8293 12.471 36.68 12.3438 36.5161 12.2582C36.3521 12.1725 36.1767 12.1301 36 12.1333H4.00003ZM4.00003 24.2667C3.82335 24.2634 3.64793 24.3059 3.48397 24.3915C3.32001 24.4772 3.17079 24.6043 3.04496 24.7656C2.91913 24.9269 2.81922 25.119 2.75102 25.331C2.68282 25.5429 2.64771 25.7703 2.64771 26C2.64771 26.2297 2.68282 26.4571 2.75102 26.669C2.81922 26.881 2.91913 27.0731 3.04496 27.2344C3.17079 27.3957 3.32001 27.5229 3.48397 27.6085C3.64793 27.6942 3.82335 27.7366 4.00003 27.7333H36C36.1767 27.7366 36.3521 27.6942 36.5161 27.6085C36.68 27.5229 36.8293 27.3957 36.9551 27.2344C37.0809 27.0731 37.1808 26.881 37.249 26.669C37.3172 26.4571 37.3523 26.2297 37.3523 26C37.3523 25.7703 37.3172 25.5429 37.249 25.331C37.1808 25.119 37.0809 24.9269 36.9551 24.7656C36.8293 24.6043 36.68 24.4772 36.5161 24.3915C36.3521 24.3059 36.1767 24.2634 36 24.2667H4.00003ZM4.00003 36.4C3.82335 36.3968 3.64793 36.4392 3.48397 36.5248C3.32001 36.6105 3.17079 36.7377 3.04496 36.8989C2.91913 37.0602 2.81922 37.2524 2.75102 37.4643C2.68282 37.6762 2.64771 37.9036 2.64771 38.1333C2.64771 38.363 2.68282 38.5905 2.75102 38.8024C2.81922 39.0143 2.91913 39.2065 3.04496 39.3678C3.17079 39.529 3.32001 39.6562 3.48397 39.7418C3.64793 39.8275 3.82335 39.8699 4.00003 39.8667H36C36.1767 39.8699 36.3521 39.8275 36.5161 39.7418C36.68 39.6562 36.8293 39.529 36.9551 39.3678C37.0809 39.2065 37.1808 39.0143 37.249 38.8024C37.3172 38.5905 37.3523 38.363 37.3523 38.1333C37.3523 37.9036 37.3172 37.6762 37.249 37.4643C37.1808 37.2524 37.0809 37.0602 36.9551 36.8989C36.8293 36.7377 36.68 36.6105 36.5161 36.5248C36.3521 36.4392 36.1767 36.3968 36 36.4H4.00003Z" fill="#FFF6F6"/>
</svg>
